<svg xmlns="http://www.w3.org/2000/svg" viewBox="0 0 32 32" fill="none"><defs><linearGradient id="fireworks-gradient" x1="0%" y1="0%" x2="100%" y2="100%"><stop offset="0%" style="stop-color:#FF6B35;stop-opacity:1" /><stop offset="50%" style="stop-color:#F7931E;stop-opacity:1" /><stop offset="100%" style="stop-color:#FFD700;stop-opacity:1" /></linearGradient></defs><circle cx="16" cy="16" r="3" fill="url(#fireworks-gradient)" /><g stroke="url(#fireworks-gradient)" stroke-width="2" stroke-linecap="round"><line x1="16" y1="8" x2="16" y2="4" /><line x1="16" y1="24" x2="16" y2="28" /><line x1="8" y1="16" x2="4" y2="16" /><line x1="24" y1="16" x2="28" y2="16" /><line x1="10.5" y1="10.5" x2="7.5" y2="7.5" /><line x1="21.5" y1="21.5" x2="24.5" y2="24.5" /><line x1="10.5" y1="21.5" x2="7.5" y2="24.5" /><line x1="21.5" y1="10.5" x2="24.5" y2="7.5" /></g><g fill="url(#fireworks-gradient)"><circle cx="16" cy="4" r="1.5" /><circle cx="16" cy="28" r="1.5" /><circle cx="4" cy="16" r="1.5" /><circle cx="28" cy="16" r="1.5" /><circle cx="7.5" cy="7.5" r="1.5" /><circle cx="24.5" cy="24.5" r="1.5" /><circle cx="7.5" cy="24.5" r="1.5" /><circle cx="24.5" cy="7.5" r="1.5" /></g><g fill="#FFD700" opacity="0.6"><circle cx="12" cy="6" r="1" /><circle cx="20" cy="6" r="1" /><circle cx="12" cy="26" r="1" /><circle cx="20" cy="26" r="1" /><circle cx="6" cy="12" r="1" /><circle cx="6" cy="20" r="1" /><circle cx="26" cy="12" r="1" /><circle cx="26" cy="20" r="1" /></g></svg>