<svg xmlns="http://www.w3.org/2000/svg" viewBox="4 7 56 56" role="img" aria-labelledby="title desc">
  <title id="title">AutoJev</title>
  <desc id="desc">A geometric A and J monogram shaped like a decision path converging upward.</desc>
  <defs>
    <mask id="decision-cutout" maskUnits="userSpaceOnUse" x="0" y="0" width="64" height="64">
      <rect width="64" height="64" fill="white" />
      <path fill="black" d="m32.8 20.2 8.1 11.3h-5v7.3h-6.2v-7.3h-5l8.1-11.3Z" />
    </mask>
  </defs>
  <g fill="#D45A2A" mask="url(#decision-cutout)">
    <path d="M7.5 48.5 25.7 14a7.1 7.1 0 0 1 12.6 0l18.2 34.5H44.2L39 38.2H24.9l-5.2 10.3H7.5Z" />
    <path d="M37.2 32.2v15.2c0 7.5-4.7 11.6-12.2 11.6-4.2 0-7.7-1.6-10.1-4.5l6.2-6.2c1.2 1.4 2.5 2 4 2 2.2 0 3.4-1.2 3.4-3.7V32.2h8.7Z" />
  </g>
</svg>